<svg width="60" height="60" viewBox="0 0 60 60" fill="none" xmlns="http://www.w3.org/2000/svg">
<path d="M22.4531 55.1719C22.2188 55.1719 22.0781 55.125 21.8906 55.0312C21.0469 54.4687 17.0625 51.5156 20.3906 45.6562C21.2813 44.0625 21.5156 42.7969 21.1875 41.7656C20.8125 40.5937 19.5938 40.125 19.5938 40.125C19.0312 39.8906 18.75 39.2344 18.9844 38.6719C19.1719 38.2031 19.5469 37.9219 20.0156 37.9219C20.1563 37.9219 20.2969 37.9687 20.4375 38.0156C20.625 38.0156 22.5938 38.8594 23.3906 40.9687C24 42.6562 23.6719 44.625 22.4062 46.8281C20.0625 50.9531 22.5469 52.7812 23.0625 53.1094C23.5781 53.3906 23.7656 54.0937 23.4844 54.6562C23.2031 55.0312 22.7813 55.1719 22.4531 55.1719ZM30.0469 52.6875C29.8125 52.6875 29.6719 52.6406 29.4844 52.5469C27.7969 51.5625 25.4063 48.5156 28.0781 43.7344C28.875 42.2812 29.1094 41.1094 28.7813 40.2187C28.4531 39.1875 27.375 38.7656 27.375 38.7656C26.7656 38.5312 26.4844 37.9219 26.7188 37.3125C26.9063 36.8437 27.2813 36.5625 27.75 36.5625C27.8906 36.5625 28.0312 36.6094 28.1719 36.6562C28.6406 36.8437 30.2813 37.5937 30.9375 39.4687C31.5 41.0625 31.2187 42.8906 30.0469 44.9062C27.7969 48.9375 30.5156 50.5781 30.6563 50.625C30.8906 50.7656 31.0781 51 31.1719 51.2812C31.2656 51.5625 31.2188 51.8906 31.0781 52.1719C30.7969 52.5469 30.375 52.6875 30.0469 52.6875ZM14.4844 52.6875C14.25 52.6875 14.1094 52.6406 13.9219 52.5469C12.2344 51.5625 9.84375 48.5156 12.5156 43.7344C13.3125 42.2812 13.5469 41.1094 13.2188 40.2187C12.8906 39.1875 11.8125 38.7656 11.8125 38.7656C11.2031 38.5312 10.9219 37.9219 11.1562 37.3125C11.3438 36.8437 11.7188 36.5625 12.1875 36.5625C12.3281 36.5625 12.4687 36.6094 12.6094 36.6562C13.0781 36.8437 14.7188 37.6406 15.375 39.4687C15.9375 41.0625 15.6094 42.8906 14.4844 44.9531C12.2344 48.9844 14.9531 50.625 15.0938 50.6719C15.3281 50.8125 15.5156 51.0469 15.6094 51.3281C15.7031 51.6094 15.6562 51.9375 15.5156 52.2187C15.2812 52.5469 14.8125 52.6875 14.4844 52.6875ZM43.0312 48.5156C42.6562 48.5156 42.375 48.375 42.1406 48.1406C41.9062 47.9062 41.7656 47.5781 41.7656 47.25C41.7656 46.7344 42.0938 46.2656 42.5625 46.0312H42.6094V43.5L40.2188 44.8594V44.9062C40.2188 45.2812 40.0781 45.75 39.6094 45.9844C39.4219 46.125 39.1875 46.1719 38.9531 46.1719C38.4844 46.1719 38.0625 45.9375 37.875 45.5625C37.6875 45.2344 37.6406 44.9062 37.7344 44.5781C37.8281 44.25 38.0156 43.9687 38.3438 43.8281C38.5313 43.6875 38.7656 43.6406 38.9531 43.6406C39.1875 43.6406 39.4219 43.6875 39.6094 43.8281L41.7656 42.6094L39.6562 41.3906C39.375 41.4844 39.1406 41.5312 38.9531 41.5312C38.7187 41.5312 38.5313 41.4844 38.3438 41.3906C37.7812 41.0156 37.5469 40.2187 37.875 39.6562C38.1094 39.2812 38.5312 39.0469 39 39.0469C39.2344 39.0469 39.4687 39.0937 39.6562 39.2344C40.0312 39.4687 40.2656 39.8437 40.2656 40.3125V40.3594L42.6562 41.7187V39.1875H42.6094C42.1406 38.9531 41.8125 38.4844 41.8125 37.9687C41.8125 37.2656 42.375 36.7031 43.0781 36.7031C43.4531 36.7031 43.7812 36.8437 44.0156 37.0781C44.25 37.3125 44.3906 37.6406 44.3906 37.9687C44.3906 38.3906 44.1562 38.8125 43.7344 39.0469H43.5937V41.4844L45.6562 40.3125V40.2656C45.6562 39.8906 45.7969 39.4219 46.2656 39.1875C46.4531 39.0469 46.6875 39 46.9219 39C47.3906 39 47.8125 39.2344 48 39.6094C48.1875 39.9375 48.2344 40.2656 48.1406 40.5937C48.0469 40.9219 47.8594 41.2031 47.5312 41.3437C47.3437 41.4844 47.1094 41.5312 46.9219 41.5312C46.6875 41.5312 46.4531 41.4844 46.2656 41.3437L44.1094 42.5625L46.2187 43.7812C46.5 43.6875 46.7344 43.6406 46.9219 43.6406C47.1562 43.6406 47.3437 43.6875 47.5312 43.7812C48.0937 44.1562 48.3281 44.9531 48 45.5156C47.7656 45.8906 47.3437 46.125 46.875 46.125C46.6406 46.125 46.4062 46.0781 46.2187 45.9375C45.8437 45.7031 45.6094 45.3281 45.6094 44.8594V44.8125L43.5937 43.6875V46.125H43.6406C44.0625 46.3125 44.2969 46.7344 44.2969 47.2031C44.2969 47.9531 43.7344 48.5156 43.0312 48.5156ZM8.90625 33.7031C5.34375 33.7031 2.48438 30.8437 2.48438 27.2813V12C2.48438 8.4375 5.34375 5.57812 8.90625 5.57812H51.1875C54.75 5.57812 57.6094 8.4375 57.6094 12V27.2813C57.6094 30.8437 54.75 33.7031 51.1875 33.7031H8.90625ZM8.25 8.39062C6.5625 8.39062 5.20313 9.79688 5.20313 11.5781V27.8906C5.20313 29.625 6.5625 31.0781 8.25 31.0781H51.7969C53.4844 31.0781 54.8437 29.6719 54.8437 27.8906V11.5781C54.8437 9.84375 53.4844 8.39062 51.7969 8.39062H8.25ZM9.51562 26.6719C8.90625 26.6719 8.39062 26.1562 8.39062 25.5469C8.39062 24.9375 8.90625 24.4219 9.51562 24.4219H49.5C50.1094 24.4219 50.625 24.9375 50.625 25.5469C50.625 26.1562 50.1094 26.6719 49.5 26.6719H9.51562ZM9.51562 21.9375C8.90625 21.9375 8.39062 21.4219 8.39062 20.8125C8.39062 20.2031 8.90625 19.6875 9.51562 19.6875H49.5C50.1094 19.6875 50.625 20.2031 50.625 20.8125C50.625 21.4219 50.1094 21.9375 49.5 21.9375H9.51562Z" fill="black"/>
</svg>
