<svg width="60" height="60" viewBox="0 0 60 60" fill="none" xmlns="http://www.w3.org/2000/svg">
<path d="M53.6344 10.4625L40.3594 2.025C40.125 1.875 39.8344 1.8375 39.5719 1.92188C39.3094 2.00625 39.0938 2.20313 38.9906 2.46563L35.8031 10.3125H19.7156C19.2563 6.9375 16.3594 4.32188 12.8625 4.32188C9.04689 4.32188 5.93439 7.43438 5.93439 11.25C5.93439 14.7469 8.55001 17.6438 11.925 18.1031V25.9219C11.925 32.7 16.7531 38.3719 23.1563 39.6656V52.7719L19.5281 53.6063C18.5344 53.8313 17.8688 54.7031 17.9063 55.725C17.9438 56.7375 18.6563 57.5438 19.65 57.7031C20.9344 57.9 22.4531 58.0406 24.0375 58.0969C24.6563 58.1156 25.2938 58.125 25.9406 58.125C26.5875 58.125 27.225 58.1156 27.8344 58.0875C29.4375 58.0313 30.9563 57.9 32.2313 57.6938C33.225 57.5438 33.9469 56.7281 33.975 55.7156C34.0125 54.6938 33.3469 53.8313 32.3531 53.5969L28.725 52.7625V39.675C35.1281 38.3719 39.9563 32.7094 39.9563 25.9313V11.25C39.9563 10.7344 39.5344 10.3125 39.0188 10.3125H37.8188L40.2938 4.20938L52.6219 12.0469C53.0625 12.3281 53.6344 12.1969 53.9156 11.7563C54.2063 11.3156 54.075 10.7344 53.6344 10.4625ZM32.4094 18.7031C31.8469 18.8719 31.3031 19.0875 30.8063 19.3875C30.0656 19.8281 29.175 19.8281 28.425 19.3781C26.1563 18.0469 23.2313 18.0375 20.9438 19.3875C20.2031 19.8375 19.3125 19.8375 18.5625 19.3969C17.1281 18.5438 15.3844 18.225 13.8 18.45V17.25V12.1875H35.0531L32.4094 18.7031ZM7.80939 11.25C7.80939 8.46563 10.0781 6.19688 12.8625 6.19688C15.3281 6.19688 17.3813 7.97813 17.8219 10.3125H12.8625C12.3469 10.3125 11.925 10.7344 11.925 11.25V16.2094C9.58126 15.7688 7.80939 13.7156 7.80939 11.25ZM26.8781 53.5969C26.8875 53.6625 26.8969 53.7188 26.9156 53.7844C26.9344 53.8406 26.9531 53.8969 26.9813 53.9438C27.0094 54 27.0469 54.0469 27.0844 54.0938C27.1219 54.1406 27.1594 54.1875 27.2063 54.225C27.2531 54.2625 27.3 54.2906 27.3469 54.3188C27.4031 54.3469 27.4594 54.375 27.525 54.3938C27.5531 54.4031 27.5719 54.4219 27.6 54.4313L31.95 55.4344C31.9969 55.4438 32.1188 55.4719 32.1094 55.6594C32.1 55.8188 32.0063 55.8375 31.95 55.8469C30.7406 56.0344 29.2969 56.1656 27.7594 56.2125C26.5875 56.2688 25.3219 56.2688 24.1219 56.2125C22.5938 56.1563 21.15 56.0344 19.9406 55.8469C19.8844 55.8375 19.7813 55.8188 19.7813 55.6594C19.7719 55.4813 19.9031 55.4531 19.9406 55.4344L24.2906 54.4313C24.3188 54.4219 24.3375 54.4031 24.3656 54.3938C24.4313 54.375 24.4875 54.3469 24.5438 54.3188C24.5906 54.2906 24.6469 54.2625 24.6844 54.225C24.7313 54.1875 24.7688 54.1406 24.8063 54.0938C24.8438 54.0469 24.8813 54 24.9094 53.9438C24.9375 53.8875 24.9563 53.8406 24.975 53.7844C24.9938 53.7188 25.0031 53.6625 25.0125 53.5969C25.0125 53.5688 25.0313 53.55 25.0313 53.5219V39.9094C25.3406 39.9281 25.6406 39.9563 25.95 39.9563C26.2594 39.9563 26.5594 39.9281 26.8688 39.9094V53.5219C26.8688 53.55 26.8781 53.5781 26.8781 53.5969ZM25.9406 38.0813C19.2375 38.0813 13.7906 32.6344 13.7906 25.9313V20.3344C15.0281 20.0906 16.4531 20.3156 17.5969 21C18.2719 21.3938 19.0125 21.6 19.7438 21.6C20.4844 21.6 21.225 21.3938 21.8906 20.9906C23.5875 19.9969 25.7813 19.9969 27.4594 20.9813C28.6875 21.7219 30.1313 21.7781 31.4063 21.1781L26.475 33.3563C26.2781 33.8344 26.5125 34.3781 26.9906 34.575C27.1031 34.6219 27.225 34.6406 27.3469 34.6406C27.7219 34.6406 28.0688 34.4156 28.2188 34.05L33.7875 20.2969C34.9594 20.1281 36.2719 20.3438 37.35 20.9906C37.5938 21.1313 37.8375 21.2438 38.1 21.3375V25.9219C38.1 32.625 32.6438 38.0813 25.9406 38.0813ZM38.1 12.1875V19.2844C37.0219 18.6844 35.8125 18.3656 34.575 18.3563L37.0688 12.1875H38.1Z" fill="black"/>
</svg>
