<svg width="60" height="60" viewBox="0 0 60 60" fill="none" xmlns="http://www.w3.org/2000/svg">
<g clip-path="url(#clip0_4_29)">
<path d="M47.5293 0.605476C47.9492 0.151374 48.6524 0.122078 49.1065 0.541999C49.5606 0.961921 49.5899 1.66505 49.1699 2.11915L40.0293 12.0117L40.0147 12.0313C38.8965 13.3838 38.1299 14.6338 37.7881 15.7764C37.4854 16.7871 37.5293 17.7051 37.9785 18.5059C38.2178 18.9356 38.1397 19.4629 37.8223 19.8096L33.4815 24.5068C33.0567 24.043 32.7197 23.667 32.4951 23.4229C32.3926 23.2861 32.2754 23.1543 32.1533 23.0274L32.1436 23.0371C32.085 22.9736 32.0215 22.915 31.958 22.8565L35.669 18.8379C35.2344 17.6758 35.2393 16.4404 35.6397 15.127C36.0693 13.7012 36.9824 12.1826 38.2959 10.6006C38.3252 10.5615 38.3496 10.5225 38.3838 10.4883L47.5195 0.59571L47.5293 0.605476ZM27.8955 27.1045C27.4854 26.6455 27.5244 25.9375 27.9834 25.5273C28.4424 25.1172 29.1504 25.1563 29.5606 25.6152C34.1553 30.7617 48.3594 45.9912 52.2949 51.6846C57.4854 59.0332 49.4483 61.3477 46.7822 58.6719C40.1221 52.2315 25.9815 35.8106 19.7656 28.8477C17.5293 29.7949 15.3565 29.9414 13.1738 29.3164C10.8252 28.6475 8.5254 27.0801 6.19142 24.6729L6.16212 24.6436C4.38478 22.7686 2.99318 20.918 1.98732 19.0869C0.957043 17.2022 0.32716 15.3369 0.10255 13.4863C-0.136707 11.4941 0.0488396 9.63868 0.585949 7.99317C1.21583 6.05958 2.334 4.42384 3.79884 3.20802C5.27345 1.98731 7.08497 1.1963 9.10646 0.952156C10.7861 0.75196 12.6172 0.922859 14.5117 1.54298C17.1338 2.39747 20.1904 4.52149 22.7246 7.2461C24.5947 9.25294 26.1963 11.6016 27.1484 14.0186C28.1397 16.5381 28.4424 19.1455 27.6465 21.5869C27.1777 23.0322 26.3281 24.3897 25.0098 25.6152C24.5557 26.0352 23.8526 26.0059 23.4326 25.5566C23.0127 25.1025 23.042 24.3994 23.4912 23.9795C24.5117 23.0274 25.166 21.9873 25.5225 20.8887C26.1377 18.999 25.8789 16.9043 25.0684 14.8438C24.2188 12.6856 22.7783 10.5762 21.0889 8.76466C18.8037 6.31348 16.0938 4.41407 13.8086 3.667C12.2412 3.15919 10.7422 3.0127 9.37013 3.17872C7.77833 3.37403 6.35255 3.98438 5.21486 4.93653C4.07228 5.88868 3.19825 7.17286 2.69532 8.70118C2.26075 10.0342 2.10939 11.5674 2.30958 13.2227C2.50001 14.7852 3.042 16.3818 3.93068 18.0127C4.86329 19.6875 6.14259 21.3818 7.7881 23.1152L7.79786 23.1299C9.85841 25.2539 11.8359 26.6211 13.794 27.1777C15.6445 27.7051 17.5293 27.5 19.4971 26.5186C19.9463 26.2598 20.5274 26.3477 20.8838 26.7481C26.9483 33.54 41.6992 50.6348 48.2324 56.9678C51.0693 58.125 52.6416 56.6992 51.2842 54.1846C49.1699 50.2588 31.0059 30.6006 27.8955 27.1045ZM22.0068 36.9238L7.76857 52.3291C7.73927 52.3584 7.71485 52.3877 7.68068 52.417C5.6006 54.6631 9.28224 57.9346 11.5674 55.7471L25.3955 40.7813L26.8799 42.4658L13.1592 57.3145C13.1299 57.3486 13.1006 57.3779 13.0615 57.4121C12.2412 58.1006 11.416 58.5498 10.5811 58.7354C9.72169 58.9307 8.87697 58.8428 8.06642 58.4619C7.9297 58.4082 7.80275 58.3398 7.69044 58.2373L5.72267 56.416C5.69337 56.3867 5.66407 56.3623 5.63478 56.3281C4.87306 55.4492 4.51173 54.5117 4.60939 53.5205C4.70216 52.583 5.20021 51.6699 6.14259 50.791L20.5176 35.2344L22.0068 36.9238ZM36.9287 28.3008L37.7734 27.3877C38.1934 26.9336 38.9014 26.9043 39.3506 27.3242C39.7998 27.7441 39.834 28.4473 39.4141 28.9014L38.4375 29.9561L36.9287 28.3008ZM51.001 3.87208C51.4209 3.41798 52.124 3.38868 52.5781 3.8086C53.0322 4.22852 53.0615 4.93165 52.6416 5.38575L44.6289 14.0625C44.209 14.5166 43.5059 14.5459 43.0518 14.126C42.5977 13.7061 42.5684 13.0029 42.9883 12.5488L51.001 3.87208ZM54.4678 7.08009C54.8877 6.62598 55.5908 6.59669 56.0449 7.01661C56.499 7.43653 56.5283 8.13966 56.1084 8.59376L48.1006 17.2656C47.6807 17.7197 46.9775 17.749 46.5234 17.3291C46.0693 16.9092 46.04 16.2061 46.46 15.752L54.4678 7.08009ZM58.0615 10.415C58.4815 9.96094 59.1846 9.93165 59.6387 10.3516C60.0928 10.7715 60.1221 11.4795 59.7022 11.9287L50.5615 21.8262C50.5274 21.8604 50.4932 21.8897 50.459 21.9238C48.3789 23.9258 46.3916 25.083 44.4922 25.4102C42.4317 25.7666 40.542 25.1807 38.8086 23.667C38.3447 23.2617 38.3008 22.5537 38.7012 22.0947C39.1065 21.6309 39.8145 21.5869 40.2734 21.9873C41.4697 23.0322 42.749 23.4424 44.1016 23.2031C45.5567 22.9541 47.1582 21.9922 48.9063 20.3076L48.916 20.2979L58.0518 10.4102L58.0615 10.415Z" fill="black"/>
</g>
<defs>
<clipPath id="clip0_4_29">
<rect width="60" height="60" fill="white"/>
</clipPath>
</defs>
</svg>
