<svg width="60" height="60" viewBox="0 0 60 60" fill="none" xmlns="http://www.w3.org/2000/svg">
<g clip-path="url(#clip0_4_15)">
<path d="M60 17.7082C60 17.0778 59.4889 16.5667 58.8585 16.5667H50.2923V10.0287C50.2999 9.91157 50.3732 9.03651 50.8738 8.21852C51.5455 7.12151 52.668 6.61076 54.3043 6.65577C55.1945 6.68056 56.3668 6.85864 56.896 7.56622C57.4192 8.26614 57.1625 9.26628 57.1627 9.26612C56.9893 9.87227 57.3404 10.5042 57.9466 10.6774C58.5525 10.8504 59.1846 10.4996 59.3578 9.89347C59.4173 9.68506 59.9062 7.81149 58.7461 6.22802C57.8862 5.05421 56.413 4.43028 54.3677 4.37353C51.204 4.28416 49.6286 5.82327 48.8655 7.12869C48.0761 8.4796 48.0141 9.81731 48.0097 9.96555C48.0094 9.97696 48.0092 9.98854 48.0092 9.99996V16.5667H32.4915V10.0288C32.4991 9.91157 32.5725 9.03667 33.0733 8.21868C33.7454 7.12151 34.8676 6.61092 36.5043 6.65593C37.3945 6.68072 38.5668 6.85864 39.096 7.56638C39.6192 8.2663 39.3625 9.26644 39.3626 9.26628C39.1893 9.87243 39.5404 10.5043 40.1466 10.6775C40.7529 10.8506 41.3846 10.4998 41.5578 9.89363C41.6173 9.68522 42.1062 7.81165 40.9461 6.22819C40.0861 5.05437 38.613 4.43044 36.5677 4.37353C33.4011 4.28579 31.8282 5.82327 31.0652 7.12869C30.2754 8.47944 30.2133 9.81731 30.2089 9.96538C30.2086 9.97696 30.2084 9.98838 30.2084 9.99996V16.5667H1.14153C0.511078 16.5667 0 17.0778 0 17.7082V37.2714C0.0357135 37.8697 0.534235 38.3441 1.14153 38.3441C2.80588 38.3441 3.57804 38.9551 4.55584 39.7286C5.66801 40.6084 6.92858 41.6056 9.38678 41.6056C11.845 41.6056 13.1054 40.6084 14.2174 39.7284C15.195 38.955 15.9672 38.3441 17.6314 38.3441C19.2956 38.3441 20.0677 38.9551 21.0455 39.7286C22.1575 40.6084 23.4181 41.6056 25.8761 41.6056C28.3345 41.6056 29.5951 40.6084 30.7071 39.7284C31.6847 38.955 32.4572 38.3441 34.1214 38.3441C35.7858 38.3441 36.5579 38.9551 37.5357 39.7286C38.6479 40.6084 39.9083 41.6056 42.3665 41.6056C44.8249 41.6056 46.0856 40.6084 47.1978 39.7286C48.1756 38.955 48.9479 38.3441 50.6126 38.3441C52.2771 38.3441 53.0494 38.9551 54.0275 39.7286C55.1395 40.6084 56.4009 41.5475 58.8586 41.6056C59.5168 41.6211 60.0002 41.0945 60.0002 40.4641C60.0002 40.4569 59.9992 40.4502 59.999 40.443C59.9993 40.443 59.9998 40.4429 60.0002 40.4427L60 17.7082ZM30.2082 20.4805V37.2471C29.8801 37.4723 29.5801 37.7091 29.2906 37.9379C28.3128 38.7115 27.5405 39.3224 25.8761 39.3224C24.212 39.3224 23.4398 38.7113 22.462 37.938C21.35 37.0582 20.0896 36.0609 17.6314 36.0609C15.1733 36.0609 13.9128 37.0581 12.8008 37.9379C11.8231 38.7113 11.051 39.3224 9.38662 39.3224C7.72227 39.3224 6.95011 38.7113 5.97215 37.9379C5.38149 37.4705 4.74647 36.9715 3.91381 36.6055C3.80275 36.5568 3.68779 36.5108 3.56956 36.4671C3.55798 36.4629 3.5464 36.4585 3.53482 36.4542C3.41415 36.4105 3.29005 36.3694 3.16073 36.3319C3.15469 36.3301 3.14833 36.3286 3.1423 36.327C3.02749 36.2941 2.90845 36.2644 2.78647 36.237C2.75483 36.2298 2.72287 36.2228 2.69074 36.2161C2.55865 36.1884 2.42395 36.163 2.28306 36.1424V18.8497H30.2082V20.4805ZM48.0092 36.5313C47.0913 36.9025 46.4121 37.4389 45.7813 37.9379C44.8033 38.7115 44.031 39.3224 42.3665 39.3224C40.7021 39.3224 39.93 38.7113 38.9522 37.9379C37.8402 37.0581 36.5796 36.0609 34.1214 36.0609C33.5091 36.0609 32.9712 36.1228 32.4915 36.2293V33.4071H48.0092V36.5313ZM48.0092 31.1243H32.4915V26.1384H48.0092V31.1243ZM48.0092 20.4805V23.8553H32.4915V20.4805V18.8497H48.0092V20.4805ZM55.4437 37.938C54.3315 37.0582 53.0708 36.061 50.6124 36.061C50.5023 36.061 50.3975 36.0653 50.2921 36.0692V20.4805V18.8497H57.7168V20.4805V39.2041C56.7768 38.9908 56.1658 38.5093 55.4437 37.938Z" fill="black"/>
<path d="M58.8585 46.3346C57.194 46.3346 56.4216 45.7236 55.4437 44.9501C54.3315 44.0703 53.0708 43.0731 50.6124 43.0731C48.1539 43.0731 46.8933 44.0703 45.7811 44.9501C44.8032 45.7237 44.0308 46.3346 42.3663 46.3346C40.702 46.3346 39.9298 45.7236 38.952 44.9501C37.84 44.0703 36.5794 43.0731 34.1212 43.0731C31.663 43.0731 30.4026 44.0703 29.2906 44.9501C28.3128 45.7237 27.5405 46.3346 25.8761 46.3346C24.212 46.3346 23.4398 45.7236 22.462 44.9503C21.35 44.0703 20.0896 43.0731 17.6314 43.0731C15.1733 43.0731 13.9128 44.0703 12.8008 44.9501C11.8231 45.7236 11.051 46.3346 9.38662 46.3346C7.72227 46.3346 6.95011 45.7236 5.97215 44.9501C4.8603 44.0705 3.59973 43.0731 1.14153 43.0731C0.511078 43.0731 0 43.5842 0 44.2146C0 44.8451 0.511078 45.3562 1.14153 45.3562C2.80588 45.3562 3.57804 45.9672 4.55584 46.7407C5.66801 47.6205 6.92858 48.6177 9.38678 48.6177C11.845 48.6177 13.1054 47.6205 14.2174 46.7405C15.195 45.9671 15.9672 45.3562 17.6314 45.3562C19.2956 45.3562 20.0677 45.9672 21.0455 46.7407C22.1575 47.6205 23.4181 48.6177 25.8761 48.6177C28.3345 48.6177 29.5951 47.6205 30.7071 46.7405C31.6847 45.9671 32.4572 45.3562 34.1214 45.3562C35.7858 45.3562 36.5579 45.9672 37.5357 46.7407C38.6479 47.6205 39.9083 48.6177 42.3665 48.6177C44.8249 48.6177 46.0856 47.6205 47.1978 46.7407C48.1756 45.9671 48.9479 45.3562 50.6126 45.3562C52.2771 45.3562 53.0494 45.9672 54.0275 46.7407C55.1395 47.6205 56.4003 48.6177 58.8586 48.6177C59.4891 48.6177 60.0002 48.1066 60.0002 47.4762C60.0002 46.8457 59.4889 46.3346 58.8585 46.3346Z" fill="black"/>
<path d="M58.8585 53.3469C57.194 53.3469 56.4216 52.7358 55.4437 51.9624C54.3315 51.0826 53.0708 50.0854 50.6124 50.0854C48.1539 50.0854 46.8933 51.0826 45.7811 51.9624C44.8032 52.736 44.0308 53.3469 42.3663 53.3469C40.702 53.3469 39.9298 52.7358 38.952 51.9624C37.84 51.0826 36.5794 50.0854 34.1212 50.0854C31.663 50.0854 30.4026 51.0826 29.2906 51.9624C28.3128 52.736 27.5405 53.3469 25.8761 53.3469C24.212 53.3469 23.4398 52.7358 22.462 51.9625C21.35 51.0826 20.0896 50.0854 17.6314 50.0854C15.1733 50.0854 13.9128 51.0826 12.8008 51.9624C11.8231 52.7358 11.051 53.3469 9.38662 53.3469C7.72227 53.3469 6.95011 52.7358 5.97215 51.9624C4.8603 51.0827 3.59973 50.0854 1.14153 50.0854C0.511078 50.0854 0 50.5964 0 51.2269C0 51.8573 0.511078 52.3684 1.14153 52.3684C2.80588 52.3684 3.57804 52.9795 4.55584 53.7529C5.66801 54.6327 6.92858 55.6299 9.38678 55.6299C11.845 55.6299 13.1054 54.6327 14.2174 53.7528C15.195 52.9793 15.9672 52.3684 17.6314 52.3684C19.2956 52.3684 20.0677 52.9795 21.0455 53.7529C22.1575 54.6327 23.4181 55.6299 25.8761 55.6299C28.3345 55.6299 29.5951 54.6327 30.7071 53.7528C31.6847 52.9793 32.4572 52.3684 34.1214 52.3684C35.7858 52.3684 36.5579 52.9795 37.5357 53.7529C38.6479 54.6327 39.9083 55.6299 42.3665 55.6299C44.8249 55.6299 46.0856 54.6327 47.1978 53.7529C48.1756 52.9793 48.9479 52.3684 50.6126 52.3684C52.2771 52.3684 53.0494 52.9795 54.0275 53.7529C55.1395 54.6327 56.4003 55.6299 58.8586 55.6299C59.4891 55.6299 60.0002 55.1188 60.0002 54.4884C60.0002 53.8579 59.4889 53.3469 58.8585 53.3469Z" fill="black"/>
</g>
<defs>
<clipPath id="clip0_4_15">
<rect width="60" height="60" fill="white"/>
</clipPath>
</defs>
</svg>
