<svg width="60" height="60" viewBox="0 0 60 60" fill="none" xmlns="http://www.w3.org/2000/svg">
<g clip-path="url(#clip0_4_59)">
<path d="M56.9146 31.9988H55.0932C53.3916 31.9988 52.0078 33.3826 52.0078 35.0842V38.9929H42.0163V32.7791C45.6592 31.6031 47.9682 26.7323 47.9682 20.009C47.9682 12.7801 45.3015 7.68647 41.174 7.03202C41.1221 7.02403 41.0701 7.02003 41.0172 7.02003H1.05113C0.57054 7.02003 0.15889 7.36274 0.0699656 7.83534H0.0689664C0.0489834 7.94225 -0.402633 10.4811 1.31091 12.5453C2.44794 13.9152 4.22843 14.7125 6.59842 14.9383C6.24172 16.527 6.04688 18.2455 6.04688 20.009C6.04688 27.2928 9.11927 32.998 13.0409 32.998H34.0231V45.9539C34.0231 47.6245 35.3819 48.9844 37.0535 48.9844H38.9869C40.2938 48.9844 41.3998 48.1481 41.8245 46.9861H52.0088V49.8956C52.0088 51.5971 53.3926 52.981 55.0942 52.981H56.9156C58.6172 52.981 60.001 51.5971 60.001 49.8956V35.0842C60 33.3826 58.6162 31.9988 56.9146 31.9988ZM40.9322 9.01834C43.3272 9.45397 45.7162 12.6982 45.946 19.0098H25.4434L21.7395 15.306C21.5517 15.1182 21.2979 15.0132 21.0331 15.0132H19.0348H18.6861H14.7045H13.6354C13.6264 14.9993 13.6155 14.9853 13.6065 14.9713C13.5045 14.8074 13.3906 14.6426 13.2667 14.4767C13.1998 14.3868 13.1249 14.2968 13.0519 14.2069C13.019 14.166 12.988 14.125 12.954 14.084C12.914 14.0371 12.8731 13.9901 12.8311 13.9431C12.7872 13.8932 12.7512 13.8442 12.7062 13.7943C12.6892 13.7753 12.6673 13.7623 12.6483 13.7443C12.5364 13.6234 12.4195 13.5025 12.2966 13.3806C12.2176 13.3027 12.1377 13.2258 12.0558 13.1488C11.8569 12.963 11.6471 12.7761 11.4233 12.5893C11.2435 12.4384 11.0556 12.2916 10.8658 12.1447C10.7789 12.0777 10.6929 12.0108 10.603 11.9438C9.0913 10.8138 7.34078 9.81166 5.76113 9.01834H40.9322ZM14.0391 18.6761C14.0391 20.7644 13.4396 22.1442 13.0399 22.7457C12.6403 22.1432 12.0408 20.7644 12.0408 18.6761C12.0408 17.8708 12.1277 17.1884 12.2506 16.6249C12.2546 16.6309 12.2626 16.6329 12.2676 16.6379C12.3515 16.7408 12.4534 16.8217 12.5693 16.8837C12.5943 16.8966 12.6183 16.9066 12.6453 16.9176C12.7692 16.9716 12.9001 17.0095 13.0409 17.0095H13.9022C13.9931 17.5431 14.0391 18.1006 14.0391 18.6761ZM2.86159 11.2864C2.38 10.7129 2.16618 10.0694 2.07126 9.51491C3.57798 10.1624 5.57728 11.1195 7.42072 12.2286C7.3228 12.4744 7.23288 12.7292 7.14495 12.987C5.14265 12.8591 3.70488 12.2886 2.86159 11.2864ZM8.04419 20.009C8.04419 17.589 8.42586 15.268 9.12927 13.3437C9.14925 13.3576 9.16923 13.3716 9.18921 13.3856C9.80569 13.8302 10.3213 14.2639 10.7639 14.6875C10.4132 15.5478 10.0415 16.8827 10.0415 18.6761C10.0415 22.0473 11.4423 25.0037 13.0389 25.0037C14.6356 25.0037 16.0364 22.0473 16.0364 18.6761C16.0364 18.1056 15.9884 17.5521 15.9125 17.0105H17.8309C17.9658 17.9977 18.0347 19.0028 18.0347 20.008C18.0347 26.1977 15.349 30.9987 13.0389 30.9987C10.6779 30.9997 8.04419 26.4855 8.04419 20.009ZM16.7098 30.9997C16.7378 30.9667 16.7628 30.9247 16.7908 30.8907C16.9816 30.6599 17.1664 30.4121 17.3443 30.1494C17.3743 30.1054 17.4052 30.0674 17.4352 30.0225C17.64 29.7097 17.8339 29.373 18.0197 29.0203C18.0697 28.9264 18.1146 28.8255 18.1626 28.7286C18.2965 28.4578 18.4244 28.1791 18.5463 27.8893C18.5982 27.7654 18.6492 27.6405 18.6991 27.5136C18.818 27.2099 18.9279 26.8961 19.0328 26.5744C19.0668 26.4685 19.1048 26.3666 19.1368 26.2597C19.2676 25.83 19.3855 25.3884 19.4905 24.9328C19.5114 24.8419 19.5264 24.748 19.5464 24.657C19.6253 24.2864 19.6963 23.9087 19.7572 23.523C19.7812 23.3681 19.8022 23.2123 19.8242 23.0564C19.8711 22.7077 19.9101 22.354 19.9411 21.9963C19.9541 21.8444 19.97 21.6936 19.98 21.5397C20.014 21.0361 20.036 20.5266 20.036 20.009V17.0115H20.6215L24.3253 20.7154C24.5132 20.9032 24.767 21.0081 25.0317 21.0081H45.948C45.7182 27.3198 43.3292 30.564 40.9342 30.9997H34.0241H16.7098ZM38.9859 46.9861H37.0525C36.484 46.9861 36.0204 46.5235 36.0204 45.9539V32.998H40.017V38.9929V45.9539C40.017 46.5225 39.5544 46.9861 38.9859 46.9861ZM42.0153 44.9878V40.9912H52.0068V44.9878H42.0153ZM58.0017 49.8946C58.0017 50.4941 57.5141 50.9817 56.9146 50.9817H55.0932C54.4937 50.9817 54.0061 50.4941 54.0061 49.8946V46.9851V38.9919V35.0832C54.0061 34.4837 54.4937 33.9961 55.0932 33.9961H56.9146C57.5141 33.9961 58.0017 34.4837 58.0017 35.0832V49.8946Z" fill="black"/>
<path d="M32.0238 28.0022C32.5756 28.0022 33.023 27.5549 33.023 27.003C33.023 26.4512 32.5756 26.0039 32.0238 26.0039C31.472 26.0039 31.0247 26.4512 31.0247 27.003C31.0247 27.5549 31.472 28.0022 32.0238 28.0022Z" fill="black"/>
<path d="M28.0272 28.0022C28.579 28.0022 29.0264 27.5549 29.0264 27.003C29.0264 26.4512 28.579 26.0039 28.0272 26.0039C27.4754 26.0039 27.0281 26.4512 27.0281 27.003C27.0281 27.5549 27.4754 28.0022 28.0272 28.0022Z" fill="black"/>
<path d="M24.0306 28.0022C24.5824 28.0022 25.0297 27.5549 25.0297 27.003C25.0297 26.4512 24.5824 26.0039 24.0306 26.0039C23.4788 26.0039 23.0314 26.4512 23.0314 27.003C23.0314 27.5549 23.4788 28.0022 24.0306 28.0022Z" fill="black"/>
</g>
<defs>
<clipPath id="clip0_4_59">
<rect width="60" height="60" fill="white"/>
</clipPath>
</defs>
</svg>
