<svg width="60" height="60" viewBox="0 0 60 60" fill="none" xmlns="http://www.w3.org/2000/svg">
<path d="M43.375 31.9753C42.9215 31.9768 42.4838 31.8073 42.15 31.5003C38.8305 28.5275 34.531 26.8835 30.075 26.8835C25.619 26.8835 21.3195 28.5275 18 31.5003C17.8162 31.6645 17.6019 31.791 17.3692 31.8725C17.1365 31.954 16.89 31.9888 16.6439 31.9748C16.3977 31.9608 16.1568 31.8985 15.9347 31.7913C15.7127 31.684 15.514 31.5343 15.35 31.3503C15.0272 30.973 14.8649 30.4848 14.8976 29.9895C14.9303 29.4943 15.1555 29.0315 15.525 28.7003C19.5188 25.1058 24.7018 23.1168 30.075 23.1168C35.4483 23.1168 40.6313 25.1058 44.625 28.7003C44.9945 29.0315 45.2198 29.4943 45.2523 29.9895C45.285 30.4848 45.1228 30.973 44.8 31.3503C44.6173 31.5453 44.3965 31.7015 44.1515 31.809C43.9068 31.9163 43.6425 31.973 43.375 31.9753Z" fill="black"/>
<path d="M50 25C49.5275 24.9977 49.073 24.8194 48.725 24.5001C43.6713 19.6827 36.957 16.9953 29.975 16.9953C22.993 16.9953 16.2788 19.6827 11.225 24.5001C11.0529 24.7047 10.8391 24.8701 10.5978 24.9853C10.3566 25.1005 10.0935 25.1627 9.82616 25.168C9.55886 25.173 9.29356 25.121 9.04804 25.0152C8.80251 24.9094 8.58246 24.7523 8.40264 24.5545C8.22279 24.3567 8.08734 24.1227 8.00536 23.8682C7.92336 23.6138 7.89674 23.3447 7.92729 23.0791C7.95781 22.8135 8.04479 22.5575 8.18236 22.3283C8.31996 22.099 8.50496 21.9019 8.72499 21.7501C14.4644 16.3133 22.0694 13.2832 29.975 13.2832C37.8805 13.2832 45.4855 16.3133 51.225 21.7501C51.4985 22.0034 51.6903 22.3325 51.7758 22.6953C51.8615 23.0581 51.837 23.4382 51.7055 23.787C51.574 24.1358 51.3415 24.4376 51.0378 24.6536C50.734 24.8697 50.3728 24.9903 50 25Z" fill="black"/>
<path d="M23.45 39.1C23.1589 39.1 22.8718 39.0322 22.6115 38.902C22.3511 38.772 22.1246 38.583 21.95 38.35C21.799 38.1542 21.6888 37.9302 21.6258 37.6912C21.5628 37.4522 21.5484 37.203 21.5833 36.9585C21.6183 36.7137 21.702 36.4785 21.8293 36.2667C21.9567 36.0547 22.1253 35.8707 22.325 35.725C24.5319 34.0362 27.2335 33.1212 30.0125 33.1212C32.7915 33.1212 35.493 34.0362 37.7 35.725C37.897 35.8727 38.063 36.058 38.1885 36.2697C38.3137 36.4815 38.3962 36.7162 38.4312 36.96C38.466 37.2037 38.4525 37.4517 38.3912 37.6905C38.3302 37.929 38.2227 38.153 38.075 38.35C37.7727 38.7425 37.329 39.0012 36.8387 39.0712C36.3485 39.1412 35.85 39.017 35.45 38.725C33.887 37.535 31.977 36.8902 30.0125 36.8902C28.048 36.8902 26.1377 37.535 24.575 38.725C24.248 38.9637 23.8548 39.0947 23.45 39.1Z" fill="black"/>
<path d="M30 46.875C29.5028 46.875 29.0257 46.6775 28.6742 46.3258C28.3225 45.9743 28.125 45.4972 28.125 45C28.125 44.5028 28.3225 44.0257 28.6742 43.6742C29.0257 43.3225 29.5028 43.125 30 43.125C30.4972 43.125 30.9743 43.3225 31.3258 43.6742C31.6775 44.0257 31.875 44.5028 31.875 45C31.875 45.4972 31.6775 45.9743 31.3258 46.3258C30.9743 46.6775 30.4972 46.875 30 46.875Z" fill="black"/>
</svg>
